<svg width="24" height="24" viewBox="0 0 24 24" fill="none" xmlns="http://www.w3.org/2000/svg">
<path fill-rule="evenodd" clip-rule="evenodd" d="M8.17493 15.8275C12.0199 19.6725 15.5829 20.0935 16.6289 20.1325C17.8929 20.1785 19.1829 19.1465 19.7409 18.0895C18.8509 17.0455 17.6919 16.2355 16.4229 15.3575C15.6739 16.1055 14.7509 17.4955 13.5219 16.9975C12.8229 16.7165 11.0969 15.9215 9.58893 14.4125C8.08093 12.9035 7.28593 11.1785 7.00293 10.4805C6.50493 9.24951 7.89893 8.32451 8.64793 7.57551C7.76993 6.28551 6.97393 5.09651 5.93193 4.25151C4.85993 4.81151 3.82193 6.09151 3.86893 7.37251C3.90793 8.41851 4.32893 11.9815 8.17493 15.8275ZM16.5549 22.1315C15.1149 22.0785 11.0339 21.5145 6.75993 17.2415C2.48693 12.9675 1.92393 8.88751 1.86993 7.44651C1.78993 5.25051 3.47193 3.11751 5.41493 2.28451C5.64891 2.18347 5.90513 2.14501 6.15846 2.17288C6.41179 2.20076 6.65352 2.29402 6.85993 2.44351C8.46793 3.61651 9.57693 5.39351 10.5299 6.78551C10.7282 7.07496 10.819 7.42461 10.7867 7.77395C10.7544 8.12329 10.6009 8.45034 10.3529 8.69851L8.99693 10.0555C9.31193 10.7505 9.95293 11.9485 11.0029 12.9985C12.0529 14.0485 13.2509 14.6895 13.9469 15.0045L15.3019 13.6485C15.5507 13.3995 15.8792 13.2459 16.2299 13.2146C16.5805 13.1833 16.931 13.2764 17.2199 13.4775C18.6399 14.4615 20.3079 15.5545 21.5239 17.1115C21.6856 17.3194 21.7884 17.5669 21.8216 17.8281C21.8549 18.0894 21.8173 18.3547 21.7129 18.5965C20.8759 20.5495 18.7579 22.2125 16.5549 22.1315Z" fill="black"/>
</svg>
