<svg width="24" height="24" viewBox="0 0 24 24" fill="none" xmlns="http://www.w3.org/2000/svg">
<path fill-rule="evenodd" clip-rule="evenodd" d="M7.25 10C7.25 8.74022 7.75045 7.53204 8.64124 6.64124C9.53204 5.75045 10.7402 5.25 12 5.25C13.2598 5.25 14.468 5.75045 15.3588 6.64124C16.2496 7.53204 16.75 8.74022 16.75 10C16.75 11.2598 16.2496 12.468 15.3588 13.3588C14.468 14.2496 13.2598 14.75 12 14.75C10.7402 14.75 9.53204 14.2496 8.64124 13.3588C7.75045 12.468 7.25 11.2598 7.25 10ZM12 6.75C11.138 6.75 10.3114 7.09241 9.7019 7.7019C9.09241 8.3114 8.75 9.13805 8.75 10C8.75 10.862 9.09241 11.6886 9.7019 12.2981C10.3114 12.9076 11.138 13.25 12 13.25C12.862 13.25 13.6886 12.9076 14.2981 12.2981C14.9076 11.6886 15.25 10.862 15.25 10C15.25 9.13805 14.9076 8.3114 14.2981 7.7019C13.6886 7.09241 12.862 6.75 12 6.75Z" fill="#E46F15"/>
<path fill-rule="evenodd" clip-rule="evenodd" d="M3.52251 8.857C3.69389 6.78397 4.63832 4.85113 6.16841 3.442C7.6985 2.03288 9.70242 1.25046 11.7825 1.25H12.2145C14.2946 1.25046 16.2985 2.03288 17.8286 3.442C19.3587 4.85113 20.3031 6.78397 20.4745 8.857C20.6651 11.1663 19.9517 13.4595 18.4845 15.253L13.6915 21.114C13.4864 21.3648 13.2281 21.567 12.9353 21.7057C12.6425 21.8445 12.3225 21.9165 11.9985 21.9165C11.6745 21.9165 11.3545 21.8445 11.0617 21.7057C10.7689 21.567 10.5106 21.3648 10.3055 21.114L5.51251 15.253C4.04535 13.4595 3.33188 11.1663 3.52251 8.857ZM11.7825 2.75C10.0791 2.75072 8.43824 3.39165 7.18532 4.54565C5.9324 5.69965 5.159 7.28242 5.01851 8.98C4.85979 10.9019 5.45352 12.8103 6.67451 14.303L11.4675 20.165C11.5319 20.2439 11.6131 20.3074 11.7051 20.351C11.7971 20.3947 11.8977 20.4173 11.9995 20.4173C12.1013 20.4173 12.2019 20.3947 12.2939 20.351C12.3859 20.3074 12.4671 20.2439 12.5315 20.165L17.3245 14.303C18.5448 12.81 19.1378 10.9016 18.9785 8.98C18.838 7.28225 18.0645 5.69934 16.8113 4.54531C15.5582 3.39128 13.9171 2.75047 12.2135 2.75H11.7825Z" fill="#E46F15"/>
</svg>
