<svg width="16" height="16" viewBox="0 0 16 16" fill="none" xmlns="http://www.w3.org/2000/svg">
<g clip-path="url(#clip0_591_2141)">
<path fill-rule="evenodd" clip-rule="evenodd" d="M8.00001 0.189453C5.06338 0.189453 2.68188 2.57033 2.68188 5.50758C2.68188 7.8572 4.20563 9.8507 6.31876 10.5538C6.58451 10.6031 6.68213 10.4385 6.68213 10.298C6.68213 10.1712 6.67713 9.7522 6.67488 9.30795C5.19526 9.62958 4.88313 8.68045 4.88313 8.68045C4.64126 8.0657 4.29263 7.9022 4.29263 7.9022C3.81013 7.5722 4.32888 7.57895 4.32888 7.57895C4.86301 7.61645 5.14426 8.12708 5.14426 8.12708C5.61851 8.94008 6.38839 8.70495 6.69176 8.56908C6.73964 8.22533 6.87738 7.99058 7.02951 7.85783C5.84826 7.72345 4.60651 7.26733 4.60651 5.22958C4.60651 4.64895 4.81426 4.17458 5.15451 3.80208C5.09926 3.66808 4.91726 3.12708 5.20601 2.39458C5.20601 2.39458 5.65251 2.25183 6.66851 2.93995C7.09288 2.82208 7.54788 2.76295 7.99976 2.76095C8.45176 2.76308 8.90701 2.8222 9.33201 2.93995C10.347 2.25195 10.793 2.3947 10.793 2.3947C11.0825 3.1272 10.9005 3.66808 10.8453 3.8022C11.1863 4.17445 11.3925 4.64895 11.3925 5.2297C11.3925 7.2722 10.1484 7.72195 8.96413 7.85345C9.15488 8.01845 9.32488 8.3422 9.32488 8.83845C9.32488 9.54995 9.31888 10.1226 9.31888 10.2977C9.31888 10.439 9.41463 10.605 9.68413 10.5527C11.7961 9.8487 13.3179 7.85595 13.3179 5.50708C13.3181 2.57045 10.9371 0.189453 8.00001 0.189453Z" fill="#181616"/>
<path d="M4.69627 7.82449C4.68439 7.85099 4.64277 7.85887 4.60502 7.84074C4.56627 7.82324 4.54477 7.78737 4.55727 7.76074C4.56852 7.73374 4.61027 7.72612 4.64889 7.74424C4.68764 7.76174 4.70952 7.79799 4.69627 7.82449ZM4.91164 8.06499C4.88627 8.08837 4.83664 8.07749 4.80289 8.04024C4.76814 8.00312 4.76164 7.95349 4.78739 7.92974C4.81339 7.90624 4.86152 7.91724 4.89614 7.95437C4.93114 7.99187 4.93802 8.04099 4.91152 8.06487L4.91164 8.06499ZM5.12127 8.37099C5.08877 8.39374 5.03539 8.37249 5.00252 8.32512C4.96977 8.27799 4.96977 8.22137 5.00314 8.19849C5.03614 8.17574 5.08864 8.19624 5.12189 8.24312C5.15464 8.29124 5.15464 8.34799 5.12127 8.37099ZM5.40852 8.66699C5.37939 8.69912 5.31727 8.69049 5.27189 8.64662C5.22539 8.60374 5.21252 8.54287 5.24164 8.51074C5.27127 8.47862 5.33364 8.48762 5.37939 8.53112C5.42564 8.57387 5.43964 8.63499 5.40852 8.66699ZM5.80502 8.83874C5.79202 8.88049 5.73227 8.89937 5.67202 8.88174C5.61177 8.86349 5.57252 8.81474 5.58452 8.77274C5.59702 8.73074 5.65727 8.71112 5.71789 8.72999C5.77789 8.74799 5.81739 8.79624 5.80502 8.83874ZM6.24002 8.87062C6.24164 8.91437 6.19052 8.95087 6.12727 8.95162C6.06377 8.95312 6.01227 8.91762 6.01152 8.87437C6.01152 8.83012 6.06152 8.79412 6.12502 8.79312C6.18827 8.79187 6.24002 8.82712 6.24002 8.87062ZM6.64502 8.80174C6.65252 8.84449 6.60877 8.88849 6.54589 8.90012C6.48414 8.91162 6.42714 8.88512 6.41914 8.84262C6.41164 8.79887 6.45627 8.75512 6.51789 8.74362C6.58077 8.73262 6.63702 8.75824 6.64502 8.80174Z" fill="#181616"/>
<path d="M3.10689 13.5378H1.76939C1.75281 13.5378 1.73692 13.5444 1.7252 13.5561C1.71348 13.5678 1.70689 13.5837 1.70689 13.6003V14.2543C1.70689 14.2709 1.71348 14.2868 1.7252 14.2985C1.73692 14.3102 1.75281 14.3168 1.76939 14.3168H2.29102V15.1293C2.29102 15.1293 2.17389 15.1693 1.84977 15.1693C1.46777 15.1693 0.933891 15.0298 0.933891 13.8558C0.933891 12.6817 1.48989 12.5271 2.01189 12.5271C2.46364 12.5271 2.65814 12.6066 2.78214 12.6449C2.82089 12.6567 2.85714 12.6179 2.85714 12.5834L3.00627 11.9516C3.00649 11.9421 3.00442 11.9327 3.00024 11.9242C2.99606 11.9158 2.9899 11.9084 2.98227 11.9028C2.93189 11.8668 2.62514 11.6953 1.85002 11.6953C0.957016 11.6953 0.0410156 12.0751 0.0410156 13.9016C0.0410156 15.7278 1.08977 15.9999 1.97352 15.9999C2.70527 15.9999 3.14914 15.6872 3.14914 15.6872C3.16739 15.6772 3.16939 15.6516 3.16939 15.6397V13.6002C3.16939 13.5836 3.16281 13.5677 3.15108 13.556C3.13936 13.5443 3.12347 13.5378 3.10689 13.5378ZM9.93826 11.8513H9.18502C9.1768 11.8513 9.16867 11.853 9.16109 11.8562C9.15351 11.8594 9.14663 11.864 9.14085 11.8698C9.13507 11.8757 9.13049 11.8826 9.12739 11.8902C9.12429 11.8978 9.12272 11.906 9.12277 11.9142L9.12302 13.3697H7.94902V11.9142C7.94907 11.906 7.9475 11.8978 7.9444 11.8902C7.94131 11.8826 7.93674 11.8757 7.93098 11.8699C7.92521 11.864 7.91834 11.8594 7.91078 11.8562C7.90322 11.853 7.8951 11.8514 7.88689 11.8513H7.13377C7.12555 11.8513 7.11742 11.853 7.10984 11.8562C7.10226 11.8594 7.09538 11.864 7.0896 11.8698C7.08382 11.8757 7.07924 11.8826 7.07614 11.8902C7.07304 11.8978 7.07147 11.906 7.07152 11.9142V15.8554C7.07152 15.8901 7.09952 15.9183 7.13377 15.9183H7.88689C7.89511 15.9183 7.90324 15.9166 7.91081 15.9134C7.91838 15.9102 7.92525 15.9056 7.93102 15.8997C7.93679 15.8938 7.94135 15.8869 7.94444 15.8793C7.94753 15.8717 7.94908 15.8635 7.94902 15.8553V14.1696H9.12302L9.12102 15.8553C9.12102 15.8901 9.14902 15.9183 9.18352 15.9183H9.93826C9.94648 15.9183 9.95461 15.9166 9.96218 15.9134C9.96976 15.9102 9.97662 15.9056 9.98239 15.8997C9.98816 15.8938 9.99272 15.8869 9.99581 15.8793C9.9989 15.8717 10.0005 15.8635 10.0004 15.8553V11.9141C10.0005 11.9059 9.99893 11.8977 9.99584 11.8901C9.99276 11.8825 9.98819 11.8756 9.98242 11.8697C9.97664 11.8639 9.96976 11.8593 9.96218 11.8561C9.95461 11.8529 9.94648 11.8513 9.93826 11.8513ZM4.04252 11.9409C3.77452 11.9409 3.55702 12.1601 3.55702 12.4313C3.55702 12.7022 3.77452 12.9219 4.04252 12.9219C4.31077 12.9219 4.52814 12.7022 4.52814 12.4313C4.52814 12.1601 4.31064 11.9409 4.04252 11.9409ZM4.41202 13.1419H3.66127C3.62677 13.1419 3.59602 13.1774 3.59602 13.2119V15.8184C3.59602 15.8951 3.64377 15.9178 3.70552 15.9178H4.38177C4.45614 15.9178 4.47427 15.8813 4.47427 15.8172V13.2048C4.4743 13.1966 4.47271 13.1885 4.4696 13.1809C4.46649 13.1733 4.46192 13.1664 4.45614 13.1605C4.45036 13.1547 4.44348 13.1501 4.43591 13.1469C4.42834 13.1437 4.42022 13.142 4.41202 13.1419ZM12.8628 13.1478H12.1153C12.1071 13.1479 12.0989 13.1496 12.0914 13.1528C12.0838 13.156 12.077 13.1606 12.0712 13.1665C12.0655 13.1723 12.0609 13.1792 12.0578 13.1869C12.0548 13.1945 12.0532 13.2026 12.0533 13.2108V15.1433C12.0533 15.1433 11.8633 15.2821 11.5939 15.2821C11.3245 15.2821 11.253 15.1599 11.253 14.8961V13.2108C11.2531 13.2026 11.2515 13.1944 11.2484 13.1868C11.2453 13.1792 11.2408 13.1723 11.235 13.1664C11.2292 13.1606 11.2224 13.1559 11.2148 13.1527C11.2072 13.1495 11.1991 13.1479 11.1909 13.1478H10.4324C10.4242 13.1478 10.416 13.1495 10.4084 13.1527C10.4008 13.1559 10.394 13.1605 10.3882 13.1664C10.3824 13.1722 10.3778 13.1792 10.3747 13.1868C10.3716 13.1944 10.3701 13.2026 10.3701 13.2108V15.0236C10.3701 15.8073 10.807 15.9991 11.4079 15.9991C11.9009 15.9991 12.2984 15.7266 12.2984 15.7266C12.2984 15.7266 12.3171 15.8703 12.3259 15.8872C12.3346 15.9042 12.3568 15.9213 12.3809 15.9213L12.8634 15.9192C12.8716 15.9192 12.8798 15.9176 12.8874 15.9144C12.895 15.9112 12.902 15.9066 12.9078 15.9007C12.9136 15.8948 12.9182 15.8879 12.9213 15.8803C12.9244 15.8726 12.926 15.8644 12.9259 15.8562L12.9255 13.2104C12.9254 13.1939 12.9189 13.178 12.9072 13.1662C12.8955 13.1545 12.8796 13.1478 12.863 13.1477L12.8628 13.1478ZM14.9055 13.0593C14.481 13.0593 14.1923 13.2487 14.1923 13.2487V11.9141C14.1923 11.9059 14.1907 11.8977 14.1877 11.8901C14.1846 11.8825 14.18 11.8756 14.1742 11.8698C14.1685 11.8639 14.1616 11.8593 14.154 11.8561C14.1465 11.8529 14.1383 11.8512 14.1301 11.8512H13.375C13.3668 11.8512 13.3586 11.8528 13.351 11.856C13.3434 11.8591 13.3365 11.8638 13.3307 11.8696C13.3249 11.8755 13.3203 11.8824 13.3172 11.89C13.314 11.8977 13.3125 11.9058 13.3125 11.9141V15.8553C13.3125 15.8636 13.314 15.8717 13.3172 15.8793C13.3203 15.887 13.3249 15.8939 13.3307 15.8997C13.3365 15.9056 13.3434 15.9102 13.351 15.9134C13.3586 15.9166 13.3668 15.9182 13.375 15.9182H13.899C13.9228 15.9182 13.9405 15.9061 13.9536 15.8847C13.9665 15.8634 13.9854 15.7029 13.9854 15.7029C13.9854 15.7029 14.2941 15.9954 14.8789 15.9954C15.5651 15.9954 15.9589 15.6474 15.9589 14.4327C15.9589 13.2179 15.3301 13.0592 14.9054 13.0592L14.9055 13.0593ZM14.6105 15.2798C14.3514 15.2719 14.1755 15.1543 14.1755 15.1543V13.9062C14.1755 13.9062 14.349 13.7999 14.5618 13.7807C14.8309 13.7566 15.0903 13.8379 15.0903 14.4799C15.0903 15.1571 14.9734 15.2907 14.6106 15.2797L14.6105 15.2798ZM6.64939 15.2651C6.61652 15.2651 6.53227 15.2784 6.44564 15.2784C6.16814 15.2784 6.07402 15.1494 6.07402 14.9824V13.8742H6.63902C6.64727 13.8742 6.65543 13.8726 6.66305 13.8694C6.67067 13.8662 6.67758 13.8616 6.68339 13.8557C6.6892 13.8498 6.69379 13.8429 6.6969 13.8353C6.70001 13.8276 6.70158 13.8194 6.70152 13.8112V13.2042C6.70155 13.196 6.69996 13.1878 6.69683 13.1802C6.6937 13.1726 6.68911 13.1657 6.6833 13.1598C6.67749 13.154 6.67059 13.1494 6.66299 13.1462C6.65539 13.1431 6.64724 13.1414 6.63902 13.1414H6.07402L6.07314 12.3952C6.07314 12.3668 6.05864 12.3527 6.02589 12.3527H5.25589C5.22614 12.3527 5.21002 12.3659 5.21002 12.3946V13.1658C5.21002 13.1658 4.82414 13.2589 4.79814 13.2664C4.78516 13.2702 4.77375 13.2781 4.76564 13.2889C4.75753 13.2998 4.75314 13.3129 4.75314 13.3264V13.8111C4.75309 13.8193 4.75466 13.8274 4.75775 13.835C4.76085 13.8426 4.76541 13.8495 4.77118 13.8554C4.77695 13.8612 4.78381 13.8659 4.79138 13.869C4.79894 13.8722 4.80706 13.8739 4.81527 13.8739H5.21002V15.0399C5.21002 15.9062 5.81752 15.9912 6.22752 15.9912C6.41464 15.9912 6.63877 15.9312 6.67577 15.9174C6.69827 15.9091 6.71114 15.8859 6.71114 15.8608L6.71164 15.3277C6.71138 15.3112 6.70473 15.2954 6.69307 15.2837C6.68141 15.272 6.66566 15.2653 6.64914 15.2649L6.64939 15.2651Z" fill="#100E0F"/>
</g>
<defs>
<clipPath id="clip0_591_2141">
<rect width="16" height="16" fill="white"/>
</clipPath>
</defs>
</svg>
